<svg width="16" height="19" viewBox="0 0 16 19" fill="none" xmlns="http://www.w3.org/2000/svg">
<path d="M13.05 17.28C12.07 18.23 11 18.08 9.97004 17.63C8.88004 17.17 7.88004 17.15 6.73004 17.63C5.29004 18.25 4.53004 18.07 3.67004 17.28C-1.20996 12.25 -0.489958 4.59 5.05004 4.31C6.40004 4.38 7.34004 5.05 8.13004 5.11C9.31004 4.87 10.44 4.18 11.7 4.27C13.21 4.39 14.35 4.99 15.1 6.07C11.98 7.94 12.72 12.05 15.58 13.2C15.01 14.7 14.27 16.19 13.04 17.29L13.05 17.28ZM8.03004 4.25C7.88004 2.02 9.69004 0.18 11.77 0C12.06 2.58 9.43004 4.5 8.03004 4.25Z" fill="white"/>
</svg>
