<svg width="39" height="37" viewBox="0 0 39 37" fill="none" xmlns="http://www.w3.org/2000/svg">
<g clip-path="url(#clip0_13_16)">
<path d="M7.1285 13.4635C6.67025 14.0095 5.94022 14.4421 5.2114 14.3787C5.11512 13.6426 5.47831 12.8541 5.89756 12.3654C6.35459 11.8084 7.15409 11.4086 7.80247 11.3757C7.87925 12.1448 7.57822 12.9004 7.1285 13.4635ZM7.79515 14.5238C6.73606 14.4592 5.82687 15.1319 5.32475 15.1319C4.81165 15.1319 4.04262 14.5555 3.20534 14.575C2.11944 14.5884 1.10422 15.2087 0.552123 16.2069C-0.597158 18.1922 0.253529 21.1318 1.35772 22.7503C1.89762 23.5498 2.54356 24.4261 3.39547 24.4017C4.20106 24.3688 4.52525 23.8691 5.49659 23.8691C6.48012 23.8691 6.75922 24.4017 7.61722 24.3822C8.49837 24.3688 9.05656 23.5827 9.59647 22.7832C10.2119 21.8753 10.4654 20.9856 10.4788 20.9417C10.4654 20.9222 8.77137 20.269 8.75918 18.3007C8.74578 16.6493 10.0913 15.8632 10.1486 15.8181C9.39293 14.6761 8.19978 14.5555 7.79394 14.525L7.79515 14.5238ZM13.9084 12.2886V24.2994H15.7548V20.1934H18.3081C20.6371 20.1934 22.2751 18.5749 22.2751 16.2385C22.2751 13.8973 20.67 12.2898 18.3715 12.2898L13.9084 12.2886ZM15.7548 13.8632H17.8815C19.4805 13.8632 20.3958 14.7261 20.3958 16.2434C20.3958 17.7608 19.4805 18.631 17.8693 18.631H15.7548V13.8632ZM25.6377 24.3883C26.7991 24.3883 27.8716 23.7985 28.3616 22.8576H28.4006V24.2994H30.1068V18.319C30.1068 16.5932 28.7369 15.4707 26.6224 15.4707C24.6675 15.4707 23.2197 16.6066 23.1697 18.1617H24.826C24.9661 17.4195 25.6389 16.9369 26.5724 16.9369C27.7022 16.9369 28.3311 17.4695 28.3311 18.4481V19.1075L26.0337 19.2476C23.8875 19.3805 22.7322 20.2629 22.7322 21.8058C22.7322 23.3609 23.9265 24.3895 25.6389 24.3895L25.6377 24.3883ZM26.1398 22.966C25.155 22.966 24.5274 22.4895 24.5274 21.7607C24.5274 21.0051 25.1307 20.5602 26.2787 20.4895L28.3299 20.3628V21.0416C28.3299 22.1665 27.3841 22.966 26.1325 22.966H26.1398ZM32.3859 27.568C34.1811 27.568 35.0269 26.8697 35.763 24.7686L39 15.5902H37.128L34.9574 22.6796H34.9184L32.7478 15.5902H30.8186L33.9422 24.331L33.7765 24.8636C33.4901 25.7594 33.0342 26.1068 32.2213 26.1068C32.0751 26.1068 31.796 26.0885 31.6814 26.0763V27.5181C31.7887 27.5485 32.2469 27.562 32.3798 27.562L32.3859 27.568Z" fill="black"/>
</g>
<defs>
<clipPath id="clip0_13_16">
<rect width="39" height="39" fill="white"/>
</clipPath>
</defs>
</svg>
