<svg width="18" height="9" viewBox="0 0 18 9" fill="none" xmlns="http://www.w3.org/2000/svg">
<path fill-rule="evenodd" clip-rule="evenodd" d="M17.7975 4.21156C17.9272 4.28809 18 4.39184 18 4.5C18 4.60816 17.9272 4.71191 17.7975 4.78844L10.8742 8.87009C10.8108 8.91019 10.7344 8.94236 10.6495 8.96467C10.5645 8.98698 10.4729 8.99897 10.3799 8.99994C10.287 9.0009 10.1946 8.99082 10.1084 8.97029C10.0222 8.94977 9.94389 8.91921 9.87814 8.88045C9.8124 8.84169 9.76057 8.79552 9.72575 8.7447C9.69093 8.69388 9.67383 8.63944 9.67547 8.58464C9.67711 8.52983 9.69746 8.47578 9.7353 8.42571C9.77314 8.37565 9.8277 8.33058 9.89572 8.29322L15.6375 4.90817L0.69233 4.90817C0.508712 4.90817 0.332615 4.86516 0.202777 4.78862C0.0729401 4.71207 -1.18286e-06 4.60825 -1.18286e-06 4.5C-1.18286e-06 4.39175 0.0729401 4.28793 0.202777 4.21138C0.332615 4.13484 0.508712 4.09183 0.69233 4.09183L15.6375 4.09183L9.89572 0.706784C9.8277 0.669416 9.77314 0.624355 9.7353 0.574287C9.69746 0.524219 9.67711 0.47017 9.67547 0.415366C9.67383 0.360561 9.69093 0.306123 9.72575 0.2553C9.76057 0.204476 9.8124 0.158308 9.87814 0.119549C9.94389 0.0807902 10.0222 0.0502351 10.1084 0.0297066C10.1946 0.00917805 10.287 -0.00090344 10.3799 6.3522e-05C10.4729 0.00103048 10.5645 0.0130262 10.6495 0.0353349C10.7344 0.0576435 10.8108 0.0898081 10.8742 0.12991L17.7975 4.21156Z" fill="#9700AE"/>
</svg>
