<svg width="24" height="25" viewBox="0 0 24 25" fill="none" xmlns="http://www.w3.org/2000/svg">
<g clip-path="url(#clip0_66_47)">
<path d="M1.28726 10.1862H22.3126V8.58621H1.28726V10.1862ZM21.8533 9.71101V10.4134H23.4V9.71101H21.8533ZM19.357 22.9862H4.24294V24.5862H19.357V22.9862ZM1.74662 10.4134V9.71101H0.199951V10.4134H1.74662ZM4.6791 23.2646C2.75056 19.2744 1.74657 14.8745 1.74662 10.4134H0.199951C0.199951 15.1238 1.25942 19.7686 3.29638 23.9814L4.6791 23.2646ZM4.24294 22.9862C4.42854 22.9862 4.59712 23.095 4.6791 23.2646L3.29638 23.9814C3.38443 24.1631 3.51959 24.3159 3.68674 24.4227C3.8539 24.5295 4.04647 24.5861 4.24294 24.5862V22.9862ZM18.9208 23.2646C18.9613 23.1809 19.0236 23.1105 19.1006 23.0613C19.1777 23.0121 19.2664 22.9861 19.357 22.9862V24.5862C19.7591 24.5862 20.1241 24.3526 20.3035 23.9814L18.9208 23.2646ZM21.8533 10.4134C21.8533 14.8742 20.848 19.2742 18.9208 23.2646L20.3035 23.9814C22.3399 19.7687 23.4 15.1234 23.4 10.4134H21.8533ZM22.3126 10.1862C22.1908 10.1862 22.074 10.1361 21.9878 10.047C21.9017 9.95791 21.8533 9.83704 21.8533 9.71101H23.4C23.4 9.41269 23.2854 9.12659 23.0815 8.91565C22.8776 8.70471 22.601 8.58621 22.3126 8.58621V10.1862ZM1.28726 8.58621C0.998886 8.58621 0.722325 8.70471 0.518416 8.91565C0.314506 9.12659 0.199951 9.41269 0.199951 9.71101H1.74662C1.74662 9.83704 1.69822 9.95791 1.61207 10.047C1.52593 10.1361 1.40909 10.1862 1.28726 10.1862V8.58621ZM6.2768 9.79741L10.9168 1.79741L9.58822 0.975006L4.94822 8.97501L6.2768 9.79741ZM12.6831 1.79741L17.3231 9.79741L18.6501 8.97501L14.0101 0.975006L12.6831 1.79741Z" fill="black"/>
</g>
<defs>
<clipPath id="clip0_66_47">
<rect width="23.2" height="24" fill="white" transform="translate(0.199951 0.586205)"/>
</clipPath>
</defs>
</svg>
