<svg width="29" height="28" viewBox="0 0 29 28" fill="none" xmlns="http://www.w3.org/2000/svg">
<path d="M10.4346 0.941182C10.5367 1.00234 10.6258 1.08302 10.6967 1.17861C10.7677 1.27419 10.8191 1.38282 10.848 1.49829C10.877 1.61375 10.8829 1.73379 10.8654 1.85154C10.848 1.96929 10.8075 2.08245 10.7463 2.18456L6.13169 9.875H22.8683L18.2519 2.18456C18.1283 1.97834 18.0918 1.73148 18.1502 1.4983C18.2087 1.26513 18.3574 1.06472 18.5636 0.941182C18.7698 0.817641 19.0167 0.781082 19.2499 0.839546C19.4831 0.898011 19.6835 1.04671 19.807 1.25293L24.9817 9.875H28.0938C28.3341 9.875 28.5646 9.97048 28.7346 10.1404C28.9045 10.3104 29 10.5409 29 10.7812V12.5937C29 12.8341 28.9045 13.0646 28.7346 13.2346C28.5646 13.4045 28.3341 13.5 28.0938 13.5H0.90625C0.665898 13.5 0.435389 13.4045 0.265435 13.2346C0.0954797 13.0646 0 12.8341 0 12.5937V10.7812C0 10.5409 0.0954797 10.3104 0.265435 10.1404C0.435389 9.97048 0.665898 9.875 0.90625 9.875H4.01831L9.18937 1.25293C9.25053 1.15081 9.33121 1.06173 9.4268 0.990786C9.52239 0.919845 9.63102 0.86843 9.74648 0.83948C9.86194 0.81053 9.98198 0.804611 10.0997 0.822062C10.2175 0.839512 10.3325 0.87999 10.4346 0.941182ZM6.15163 26.1875L3.46913 15.3125H1.711L4.47506 26.9596C4.54664 27.2561 4.71587 27.52 4.95553 27.7087C5.19518 27.8974 5.49134 28 5.79637 28H23.2073C23.5126 28.0004 23.8092 27.898 24.0492 27.7092C24.2892 27.5205 24.4587 27.2564 24.5304 26.9596L27.289 15.3125H25.5272L22.8466 26.1875H6.15163Z" fill="black"/>
</svg>
