<svg width="15" height="15" viewBox="0 0 15 15" fill="none" xmlns="http://www.w3.org/2000/svg">
<g clip-path="url(#clip0_21_292)">
<path d="M0.703 6.00004H14.297V5.00004H0.703V6.00004ZM14 5.70304V6.14204H15V5.70304H14ZM12.386 14H2.614V15H12.386V14ZM1 6.14204V5.70304H0V6.14204H1ZM2.896 14.174C1.6491 11.6802 0.999966 8.93025 1 6.14204H0C0 9.08604 0.685 11.989 2.002 14.622L2.896 14.174ZM2.614 14C2.734 14 2.843 14.068 2.896 14.174L2.002 14.622C2.05893 14.7356 2.14632 14.8311 2.25439 14.8978C2.36247 14.9646 2.48697 15 2.614 15V14ZM12.104 14.174C12.1302 14.1217 12.1705 14.0777 12.2203 14.047C12.2701 14.0162 12.3275 14 12.386 14V15C12.646 15 12.882 14.854 12.998 14.622L12.104 14.174ZM14 6.14204C14 8.93004 13.35 11.68 12.104 14.174L12.998 14.622C14.3146 11.9891 15 9.0858 15 6.14204H14ZM14.297 6.00004C14.2182 6.00004 14.1427 5.96875 14.087 5.91305C14.0313 5.85735 14 5.78181 14 5.70304H15C15 5.51659 14.9259 5.33778 14.7941 5.20595C14.6623 5.07411 14.4834 5.00004 14.297 5.00004V6.00004ZM0.703 5.00004C0.516553 5.00004 0.337742 5.07411 0.205904 5.20595C0.0740659 5.33778 0 5.51659 0 5.70304H1C1 5.78181 0.968709 5.85735 0.913011 5.91305C0.857312 5.96875 0.781769 6.00004 0.703 6.00004V5.00004ZM3.929 5.75704L6.929 0.757042L6.07 0.243042L3.07 5.24304L3.929 5.75704ZM8.071 0.757042L11.071 5.75704L11.929 5.24304L8.929 0.243042L8.071 0.757042Z" fill="white"/>
</g>
<defs>
<clipPath id="clip0_21_292">
<rect width="15" height="15" fill="white"/>
</clipPath>
</defs>
</svg>
