<svg width="30" height="25" viewBox="0 0 30 25" fill="none" xmlns="http://www.w3.org/2000/svg">
<path d="M28.05 12.9766L25.2375 7.50781C25.1657 7.3666 25.0457 7.24612 24.8923 7.16137C24.7389 7.07663 24.559 7.03137 24.375 7.03125H21.5625V5.46875C21.5625 5.26155 21.4637 5.06284 21.2879 4.91632C21.1121 4.76981 20.8736 4.6875 20.625 4.6875H2.8125C2.56386 4.6875 2.3254 4.76981 2.14959 4.91632C1.97377 5.06284 1.875 5.26155 1.875 5.46875V18.75C1.875 18.9572 1.97377 19.1559 2.14959 19.3024C2.3254 19.4489 2.56386 19.5312 2.8125 19.5312H4.81875C5.03464 20.1933 5.50594 20.7777 6.15993 21.1943C6.81393 21.611 7.61428 21.8367 8.4375 21.8367C9.26072 21.8367 10.0611 21.611 10.7151 21.1943C11.3691 20.7777 11.8404 20.1933 12.0562 19.5312H17.9437C18.1596 20.1933 18.6309 20.7777 19.2849 21.1943C19.9389 21.611 20.7393 21.8367 21.5625 21.8367C22.3857 21.8367 23.1861 21.611 23.8401 21.1943C24.4941 20.7777 24.9654 20.1933 25.1813 19.5312H27.1875C27.4361 19.5312 27.6746 19.4489 27.8504 19.3024C28.0262 19.1559 28.125 18.9572 28.125 18.75V13.2812C28.1248 13.1765 28.0993 13.0729 28.05 12.9766ZM21.5625 8.59375H23.7563L25.7625 12.5H21.5625V8.59375ZM8.4375 20.3125C8.06666 20.3125 7.70415 20.2209 7.39581 20.0492C7.08746 19.8775 6.84714 19.6335 6.70523 19.3479C6.56331 19.0624 6.52618 18.7483 6.59853 18.4452C6.67087 18.1421 6.84945 17.8637 7.11167 17.6451C7.3739 17.4266 7.70799 17.2778 8.07171 17.2175C8.43542 17.1572 8.81242 17.1882 9.15503 17.3064C9.49764 17.4247 9.79048 17.625 9.99651 17.8819C10.2025 18.1389 10.3125 18.441 10.3125 18.75C10.3125 19.1644 10.115 19.5618 9.76332 19.8549C9.41169 20.1479 8.93478 20.3125 8.4375 20.3125ZM17.9437 17.9688H12.0562C11.8404 17.3067 11.3691 16.7223 10.7151 16.3057C10.0611 15.889 9.26072 15.6633 8.4375 15.6633C7.61428 15.6633 6.81393 15.889 6.15993 16.3057C5.50594 16.7223 5.03464 17.3067 4.81875 17.9688H3.75V6.25H19.6875V16.0625C19.2606 16.269 18.8868 16.5436 18.5876 16.8708C18.2884 17.1979 18.0696 17.571 17.9437 17.9688ZM21.5625 20.3125C21.1917 20.3125 20.8291 20.2209 20.5208 20.0492C20.2125 19.8775 19.9721 19.6335 19.8302 19.3479C19.6883 19.0624 19.6512 18.7483 19.7235 18.4452C19.7959 18.1421 19.9745 17.8637 20.2367 17.6451C20.4989 17.4266 20.833 17.2778 21.1967 17.2175C21.5604 17.1572 21.9374 17.1882 22.28 17.3064C22.6226 17.4247 22.9155 17.625 23.1215 17.8819C23.3275 18.1389 23.4375 18.441 23.4375 18.75C23.4375 19.1644 23.24 19.5618 22.8883 19.8549C22.5367 20.1479 22.0598 20.3125 21.5625 20.3125ZM26.25 17.9688H25.1813C24.9739 17.2996 24.5063 16.7066 23.8515 16.2826C23.1968 15.8585 22.3918 15.6272 21.5625 15.625V14.0625H26.25V17.9688Z" fill="#DF5EF3"/>
</svg>
