<svg width="81" height="80" viewBox="0 0 81 80" fill="none" xmlns="http://www.w3.org/2000/svg">
<path d="M72.6002 54.2333L59.7002 67.2333L55.2002 62.6667L50.5002 67.4L59.6668 76.6667L77.2668 58.9333L72.6002 54.2333ZM47.1668 50C47.1668 53.6667 44.1668 56.6667 40.5002 56.6667C36.8335 56.6667 33.8335 53.6667 33.8335 50C33.8335 46.3333 36.8335 43.3333 40.5002 43.3333C44.1668 43.3333 47.1668 46.3333 47.1668 50ZM43.8335 66.6667C43.8335 65.5333 43.9668 64.4333 44.1335 63.3333H18.8335L11.5335 36.6667H69.5002L66.7002 46.9C68.9668 47.2333 71.1002 47.9 73.0335 48.9333L77.0668 34.2333L77.1668 33.3333C77.1668 31.5 75.6668 30 73.8335 30H57.8668L43.2668 8.13334C42.9607 7.67931 42.5472 7.30794 42.0629 7.05227C41.5787 6.7966 41.0388 6.66455 40.4912 6.66785C39.9437 6.67114 39.4054 6.8097 38.9243 7.07118C38.4432 7.33267 38.0341 7.70898 37.7335 8.16667L23.1335 30H7.16683C5.3335 30 3.8335 31.5 3.8335 33.3333C3.8335 33.6333 3.8335 33.9333 3.96683 34.2333L12.4335 65.1333C13.2002 67.9333 15.7668 70 18.8335 70H44.1335C43.9668 68.9 43.8335 67.8 43.8335 66.6667ZM40.5002 16L49.8335 30H31.1668L40.5002 16Z" fill="#DF5EF3"/>
</svg>
