<svg width="44" height="17" viewBox="0 0 44 17" fill="none" xmlns="http://www.w3.org/2000/svg">
<g clip-path="url(#clip0_13_8)">
<path d="M31.189 4.58799C32.3986 4.58799 33.3333 4.9079 34.0482 5.54774C34.7629 6.18749 35.0927 7.04057 35.0927 8.1069V13.2252H33.5532V12.0524H33.4982C32.8385 13.0122 31.9038 13.492 30.8041 13.492C29.8694 13.492 29.0446 13.2253 28.3849 12.6922C27.78 12.1591 27.3951 11.4127 27.3951 10.6129C27.3951 9.75982 27.7251 9.06665 28.3849 8.53349C29.0446 8.00032 29.9794 7.78707 31.079 7.78707C32.0687 7.78707 32.8385 7.94707 33.4432 8.32024V7.94707C33.4432 7.4494 33.2517 6.95182 32.8685 6.62757L32.7834 6.56082C32.3436 6.18757 31.7938 5.97432 31.189 5.97432C30.2543 5.97432 29.5395 6.34757 29.0446 7.09399L27.6151 6.24074C28.4948 5.12107 29.6494 4.58799 31.189 4.58799ZM23.4364 0.962486C24.423 0.962486 25.3606 1.2954 26.1102 1.91624L26.2406 2.02874C27.0103 2.66857 27.3951 3.62832 27.3951 4.64132C27.3951 5.65432 27.0103 6.56074 26.2406 7.25382C25.4707 7.94699 24.5361 8.32015 23.4364 8.32015L20.7973 8.26682V13.2253H19.1477V0.962402L23.4364 0.962486ZM31.4088 9.06665C30.7491 9.06665 30.1993 9.22657 29.7594 9.54649C29.3195 9.81307 29.0996 10.1862 29.0996 10.6661C29.0996 11.0927 29.3196 11.4658 29.6494 11.6792C30.0344 11.9457 30.4742 12.1057 30.9141 12.1057C31.5298 12.1057 32.1457 11.8734 32.6273 11.4523L32.7285 11.3592C33.2783 10.8794 33.5532 10.2929 33.5532 9.65307C33.0584 9.2799 32.3436 9.06657 31.4089 9.06657L31.4088 9.06665ZM23.5464 2.45532H20.7973V6.72074H23.5464C24.1512 6.72074 24.756 6.50749 25.1409 6.08099C26.0206 5.28124 26.0206 3.94832 25.1959 3.14849L25.1409 3.09515C24.701 2.66865 24.1512 2.40207 23.5463 2.4554L23.5464 2.45532ZM44 4.85457L38.5567 16.9575H36.9072L38.9415 12.7455L35.3676 4.9079H37.1271L39.7113 10.9327H39.7663L42.2955 4.9079H44V4.85457Z" fill="#5F6368"/>
<path d="M14.2543 7.20049C14.2543 6.72065 14.1993 6.24082 14.1443 5.76099H7.27161V8.48015H11.1753C11.0104 9.33315 10.5156 10.1329 9.74583 10.6128V12.3722H12.1101C13.4846 11.146 14.2544 9.33315 14.2544 7.20057L14.2543 7.20049Z" fill="#4285F4"/>
<path d="M7.27151 14.0785C9.25082 14.0785 10.9003 13.4386 12.11 12.3723L9.74573 10.6129C9.08591 11.0394 8.26116 11.306 7.27151 11.306C5.40202 11.306 3.75254 10.0797 3.20271 8.37354H0.783569V10.1863C2.04814 12.5855 4.52237 14.0785 7.27151 14.0785Z" fill="#34A853"/>
<path d="M3.2027 8.37347C2.87287 7.52039 2.87287 6.56072 3.2027 5.6543V3.84155H0.783557C-0.261185 5.8143 -0.261185 8.16022 0.783557 10.1862L3.2027 8.37347Z" fill="#FBBC04"/>
<path d="M7.27152 2.77536C8.31618 2.77536 9.30584 3.14861 10.0757 3.84169L12.165 1.8157C10.8453 0.642695 9.08592 -0.0503883 7.32644 0.00286171C4.5773 0.00286171 2.04816 1.49578 0.838501 3.89503L3.25773 5.70778C3.75256 4.00161 5.40204 2.77536 7.27152 2.77536Z" fill="#EA4335"/>
</g>
<defs>
<clipPath id="clip0_13_8">
<rect width="44" height="17" fill="white"/>
</clipPath>
</defs>
</svg>
