<svg width="14" height="17" viewBox="0 0 14 17" fill="none" xmlns="http://www.w3.org/2000/svg">
<g clip-path="url(#clip0_10_109)">
<path d="M6.53807 8.10449L0.0579834 15.562C0.130754 15.8452 0.261525 16.1065 0.440301 16.3257C0.619076 16.545 0.841122 16.7164 1.08947 16.827C1.33781 16.9375 1.60587 16.9842 1.87317 16.9635C2.14047 16.9428 2.39992 16.8553 2.63169 16.7076L9.92301 12.1462L6.53807 8.10449Z" fill="#EA4335"/>
<path d="M13.0905 6.8368L9.93754 4.85303L6.38843 8.27405L9.95197 12.1354L13.081 10.1729C13.3582 10.0135 13.5903 9.77373 13.7523 9.47968C13.9143 9.18564 14 8.84851 14 8.50481C14 8.16112 13.9143 7.82398 13.7523 7.52994C13.5903 7.2359 13.3582 6.99617 13.081 6.83674H13.0907L13.0905 6.8368Z" fill="#FBBC04"/>
<path d="M0.0579868 1.41089C0.0188183 1.56995 -0.000679644 1.73407 1.80816e-05 1.89884V15.074C0.000424182 15.2387 0.0199034 15.4027 0.0579868 15.562L6.76021 8.29547L0.0579868 1.41089Z" fill="#4285F4"/>
<path d="M6.58636 8.48643L9.9375 4.85317L2.65586 0.270502C2.38189 0.0942589 2.07029 0.000924045 1.7528 3.68415e-06C0.964921 -0.00167829 0.272249 0.572717 0.0579834 1.4056L6.58636 8.48643Z" fill="#34A853"/>
</g>
<defs>
<clipPath id="clip0_10_109">
<rect width="14" height="17" fill="white"/>
</clipPath>
</defs>
</svg>
