<svg width="78" height="69" viewBox="0 0 78 69" fill="none" xmlns="http://www.w3.org/2000/svg">
<path d="M47.4359 59.3809L39.0317 67.7142L7.78169 36.7642C5.72046 34.7584 4.09687 32.3476 3.01314 29.6835C1.92941 27.0194 1.40903 24.1598 1.48476 21.2848C1.5605 18.4097 2.2307 15.5814 3.45318 12.9781C4.67566 10.3748 6.42392 8.05276 8.58788 6.15828C10.7518 4.2638 13.2846 2.8379 16.0267 1.97037C18.7688 1.10283 21.6609 0.812463 24.5207 1.11754C27.3806 1.42261 30.1463 2.31652 32.6437 3.74297C35.1411 5.16943 37.3161 7.09753 39.0317 9.40586C42.2912 5.06641 47.1154 2.17022 52.4778 1.33358C57.8401 0.496939 63.3173 1.7859 67.7438 4.92618C72.1703 8.06646 75.1966 12.8101 76.1787 18.1478C77.1608 23.4854 76.0213 28.9956 73.0025 33.5059" stroke="#9700AE" stroke-width="2" stroke-linecap="round" stroke-linejoin="round"/>
<path d="M55.6565 67.7142L73.144 50.1184C75.3069 47.9272 76.5196 44.9722 76.5196 41.8934C76.5196 38.8145 75.3069 35.8596 73.144 33.6684C72.0812 32.5878 70.8145 31.7291 69.4172 31.1421C68.0199 30.555 66.5199 30.2513 65.0043 30.2486C63.4887 30.2459 61.9876 30.5442 60.5882 31.1263C59.1888 31.7083 57.919 32.5625 56.8524 33.6392L55.6857 34.8142L54.5232 33.635C53.4604 32.5545 52.1936 31.6958 50.7963 31.1087C49.399 30.5217 47.8991 30.218 46.3834 30.2153C44.8678 30.2126 43.3668 30.5109 41.9674 31.0929C40.568 31.675 39.2982 32.5291 38.2315 33.6059C36.0648 35.7932 34.8468 38.746 34.8413 41.8249C34.8359 44.9037 36.0434 47.8608 38.2023 50.0559L55.6273 67.7142H55.6565Z" stroke="#9700AE" stroke-width="2" stroke-linecap="round" stroke-linejoin="round"/>
</svg>
