<svg width="17" height="16" viewBox="0 0 17 16" fill="none" xmlns="http://www.w3.org/2000/svg">
<g clip-path="url(#clip0_8_452)">
<path d="M8.4999 14.4133C8.39556 14.413 8.29427 14.3802 8.21184 14.32C5.58629 12.4 3.77767 10.7467 2.51212 9.11556C0.897119 7.03112 0.528785 5.10667 1.41656 3.39556C2.04934 2.17334 3.8674 1.17334 5.9924 1.75556C7.00557 2.031 7.88954 2.62169 8.4999 3.43112C9.11025 2.62169 9.99422 2.031 11.0074 1.75556C13.1277 1.18223 14.9505 2.17334 15.5832 3.39556C16.471 5.10667 16.1027 7.03112 14.4877 9.11556C13.2221 10.7467 11.4135 12.4 8.78795 14.32C8.70553 14.3802 8.60423 14.413 8.4999 14.4133ZM4.78351 2.48C4.27788 2.46148 3.77643 2.57291 3.333 2.80234C2.88957 3.03176 2.5209 3.37051 2.26656 3.78223C1.53462 5.19556 1.86517 6.76889 3.27712 8.58667C4.77764 10.4083 6.5347 12.0291 8.4999 13.4044C10.4648 12.0304 12.2218 10.4111 13.7227 8.59112C15.1393 6.76889 15.4652 5.19556 14.7332 3.78667C14.261 2.89778 12.8443 2.19112 11.2671 2.60889C10.7614 2.74956 10.2926 2.98832 9.89078 3.30982C9.48901 3.63131 9.16321 4.02841 8.93434 4.47556C8.89876 4.55708 8.83824 4.6268 8.76046 4.67586C8.68269 4.72493 8.59117 4.75113 8.49754 4.75113C8.4039 4.75113 8.31238 4.72493 8.23461 4.67586C8.15683 4.6268 8.09631 4.55708 8.06073 4.47556C7.83358 4.02729 7.50834 3.62926 7.10632 3.30757C6.7043 2.98588 6.23458 2.74778 5.72795 2.60889C5.421 2.52498 5.10314 2.48161 4.78351 2.48Z" fill="black"/>
</g>
<defs>
<clipPath id="clip0_8_452">
<rect width="17" height="16" fill="white"/>
</clipPath>
</defs>
</svg>
