<svg width="30" height="30" viewBox="0 0 30 30" fill="none" xmlns="http://www.w3.org/2000/svg">
<path d="M19.4938 5.25586H10.5063C7.60628 5.25586 5.25586 7.60669 5.25586 10.5063V19.4938C5.25586 22.3938 7.60669 24.7442 10.5067 24.7442H19.4934C22.3934 24.7442 24.7442 22.3934 24.7442 19.4934V10.5063C24.7442 7.60628 22.3938 5.25586 19.4938 5.25586Z" fill="white"/>
<path d="M19.4938 5.25586H10.5063C7.60628 5.25586 5.25586 7.60669 5.25586 10.5063V19.4938C5.25586 22.3938 7.60669 24.7442 10.5067 24.7442H19.4934C22.3934 24.7442 24.7442 22.3934 24.7442 19.4934V10.5063C24.7442 7.60628 22.3938 5.25586 19.4938 5.25586Z" stroke="black" stroke-width="2" stroke-miterlimit="10"/>
<path d="M15.0001 19.7042C17.5981 19.7042 19.7042 17.5981 19.7042 15.0001C19.7042 12.402 17.5981 10.2959 15.0001 10.2959C12.402 10.2959 10.2959 12.402 10.2959 15.0001C10.2959 17.5981 12.402 19.7042 15.0001 19.7042Z" stroke="black" stroke-width="2" stroke-miterlimit="10"/>
<path d="M20.712 10.2959C21.2687 10.2959 21.7199 9.8446 21.7199 9.28795C21.7199 8.73129 21.2687 8.28003 20.712 8.28003C20.1554 8.28003 19.7041 8.73129 19.7041 9.28795C19.7041 9.8446 20.1554 10.2959 20.712 10.2959Z" fill="black"/>
</svg>
