<svg width="253" height="99" viewBox="0 0 253 99" fill="none" xmlns="http://www.w3.org/2000/svg">
<circle cx="48.125" cy="57.75" r="28.875" fill="#3C75F2"/>
<ellipse cx="28.8751" cy="62.5625" rx="25.025" ry="24.0625" fill="#8044CC"/>
<path d="M75.0749 43.3125C75.0749 54.4756 66.0255 63.525 54.8624 63.525C43.6993 63.525 34.6499 54.4756 34.6499 43.3125C34.6499 32.1495 43.6993 23.1 54.8624 23.1C66.0255 23.1 75.0749 32.1495 75.0749 43.3125Z" fill="#FD727E"/>
<circle cx="34.6499" cy="32.725" r="19.25" fill="#FAB45B"/>
<circle cx="4.8125" cy="33.6875" r="4.8125" fill="#FC828C"/>
<circle cx="56.7874" cy="91.4375" r="2.8875" fill="#F9BC6D"/>
<circle cx="31.7625" cy="95.2875" r="2.8875" fill="#8E5AD0"/>
<circle cx="60.6375" cy="16.3625" r="2.8875" fill="#F48089"/>
<circle cx="52.9375" cy="4.8125" r="4.8125" fill="#497DF1"/>
<circle cx="48.125" cy="48.125" r="19.25" fill="#D6587E"/>
<ellipse cx="38.5001" cy="56.7875" rx="25.025" ry="24.0625" fill="#E9B3C2"/>
<ellipse cx="38.5" cy="56.7875" rx="21.175" ry="20.2125" fill="#404340"/>
<circle cx="37.5374" cy="56.7875" r="12.2625" stroke="white" stroke-width="0.5"/>
<circle cx="37.5375" cy="56.7875" r="6.4875" stroke="white" stroke-width="0.5"/>
<path d="M87.792 49.552C87.792 47.888 88.152 46.408 88.872 45.112C89.592 43.8 90.592 42.784 91.872 42.064C93.168 41.328 94.632 40.96 96.264 40.96C98.264 40.96 99.976 41.488 101.4 42.544C102.824 43.6 103.776 45.04 104.256 46.864H99.744C99.408 46.16 98.928 45.624 98.304 45.256C97.696 44.888 97 44.704 96.216 44.704C94.952 44.704 93.928 45.144 93.144 46.024C92.36 46.904 91.968 48.08 91.968 49.552C91.968 51.024 92.36 52.2 93.144 53.08C93.928 53.96 94.952 54.4 96.216 54.4C97 54.4 97.696 54.216 98.304 53.848C98.928 53.48 99.408 52.944 99.744 52.24H104.256C103.776 54.064 102.824 55.504 101.4 56.56C99.976 57.6 98.264 58.12 96.264 58.12C94.632 58.12 93.168 57.76 91.872 57.04C90.592 56.304 89.592 55.288 88.872 53.992C88.152 52.696 87.792 51.216 87.792 49.552ZM112.865 58.192C111.553 58.192 110.369 57.912 109.313 57.352C108.273 56.792 107.449 55.992 106.841 54.952C106.249 53.912 105.953 52.696 105.953 51.304C105.953 49.928 106.257 48.72 106.865 47.68C107.473 46.624 108.305 45.816 109.361 45.256C110.417 44.696 111.601 44.416 112.913 44.416C114.225 44.416 115.409 44.696 116.465 45.256C117.521 45.816 118.353 46.624 118.961 47.68C119.569 48.72 119.873 49.928 119.873 51.304C119.873 52.68 119.561 53.896 118.937 54.952C118.329 55.992 117.489 56.792 116.417 57.352C115.361 57.912 114.177 58.192 112.865 58.192ZM112.865 54.64C113.649 54.64 114.313 54.352 114.857 53.776C115.417 53.2 115.697 52.376 115.697 51.304C115.697 50.232 115.425 49.408 114.881 48.832C114.353 48.256 113.697 47.968 112.913 47.968C112.113 47.968 111.449 48.256 110.921 48.832C110.393 49.392 110.129 50.216 110.129 51.304C110.129 52.376 110.385 53.2 110.897 53.776C111.425 54.352 112.081 54.64 112.865 54.64ZM125.891 54.616H131.699V58H121.307V54.736L126.875 47.992H121.354V44.608H131.579V47.872L125.891 54.616ZM147.637 44.608L139.237 64.36H134.821L137.893 57.544L132.445 44.608H137.029L140.125 52.984L143.197 44.608H147.637ZM158.311 54.832H163.687V58H154.207V41.152H158.311V54.832ZM167.708 43.216C166.988 43.216 166.396 43.008 165.932 42.592C165.484 42.16 165.26 41.632 165.26 41.008C165.26 40.368 165.484 39.84 165.932 39.424C166.396 38.992 166.988 38.776 167.708 38.776C168.412 38.776 168.988 38.992 169.436 39.424C169.9 39.84 170.132 40.368 170.132 41.008C170.132 41.632 169.9 42.16 169.436 42.592C168.988 43.008 168.412 43.216 167.708 43.216ZM169.748 44.608V58H165.644V44.608H169.748ZM176.826 46.504C177.21 45.88 177.762 45.376 178.482 44.992C179.202 44.608 180.026 44.416 180.954 44.416C182.058 44.416 183.058 44.696 183.954 45.256C184.85 45.816 185.554 46.616 186.066 47.656C186.594 48.696 186.858 49.904 186.858 51.28C186.858 52.656 186.594 53.872 186.066 54.928C185.554 55.968 184.85 56.776 183.954 57.352C183.058 57.912 182.058 58.192 180.954 58.192C180.01 58.192 179.186 58.008 178.482 57.64C177.778 57.256 177.226 56.752 176.826 56.128V58H172.722V40.24H176.826V46.504ZM182.682 51.28C182.682 50.256 182.394 49.456 181.818 48.88C181.258 48.288 180.562 47.992 179.73 47.992C178.914 47.992 178.218 48.288 177.642 48.88C177.082 49.472 176.802 50.28 176.802 51.304C176.802 52.328 177.082 53.136 177.642 53.728C178.218 54.32 178.914 54.616 179.73 54.616C180.546 54.616 181.242 54.32 181.818 53.728C182.394 53.12 182.682 52.304 182.682 51.28ZM193.115 46.84C193.595 46.104 194.195 45.528 194.915 45.112C195.635 44.68 196.435 44.464 197.315 44.464V48.808H196.187C195.163 48.808 194.395 49.032 193.883 49.48C193.371 49.912 193.115 50.68 193.115 51.784V58H189.011V44.608H193.115V46.84ZM198.461 51.28C198.461 49.904 198.717 48.696 199.229 47.656C199.757 46.616 200.469 45.816 201.365 45.256C202.261 44.696 203.261 44.416 204.365 44.416C205.309 44.416 206.133 44.608 206.837 44.992C207.557 45.376 208.109 45.88 208.493 46.504V44.608H212.597V58H208.493V56.104C208.093 56.728 207.533 57.232 206.813 57.616C206.109 58 205.285 58.192 204.341 58.192C203.253 58.192 202.261 57.912 201.365 57.352C200.469 56.776 199.757 55.968 199.229 54.928C198.717 53.872 198.461 52.656 198.461 51.28ZM208.493 51.304C208.493 50.28 208.205 49.472 207.629 48.88C207.069 48.288 206.381 47.992 205.565 47.992C204.749 47.992 204.053 48.288 203.477 48.88C202.917 49.456 202.637 50.256 202.637 51.28C202.637 52.304 202.917 53.12 203.477 53.728C204.053 54.32 204.749 54.616 205.565 54.616C206.381 54.616 207.069 54.32 207.629 53.728C208.205 53.136 208.493 52.328 208.493 51.304ZM219.67 46.84C220.15 46.104 220.75 45.528 221.47 45.112C222.19 44.68 222.99 44.464 223.87 44.464V48.808H222.742C221.718 48.808 220.95 49.032 220.438 49.48C219.926 49.912 219.67 50.68 219.67 51.784V58H215.566V44.608H219.67V46.84ZM239.512 44.608L231.112 64.36H226.696L229.768 57.544L224.32 44.608H228.904L232 52.984L235.072 44.608H239.512Z" fill="black"/>
</svg>
