<svg width="122" height="36" viewBox="0 0 122 36" fill="none" xmlns="http://www.w3.org/2000/svg">
<circle cx="17.4449" cy="20.9338" r="10.4669" fill="#3C75F2"/>
<ellipse cx="10.4671" cy="22.6783" rx="9.07132" ry="8.72243" fill="#8044CC"/>
<path d="M27.214 15.7004C27.214 19.7469 23.9336 23.0272 19.8871 23.0272C15.8406 23.0272 12.5603 19.7469 12.5603 15.7004C12.5603 11.6539 15.8406 8.37354 19.8871 8.37354C23.9336 8.37354 27.214 11.6539 27.214 15.7004Z" fill="#FD727E"/>
<circle cx="12.5602" cy="11.8625" r="6.97794" fill="#FAB45B"/>
<circle cx="1.74448" cy="12.2114" r="1.74448" fill="#FC828C"/>
<circle cx="20.5848" cy="33.1452" r="1.04669" fill="#F9BC6D"/>
<circle cx="11.5135" cy="34.5408" r="1.04669" fill="#8E5AD0"/>
<circle cx="21.9805" cy="5.93125" r="1.04669" fill="#F48089"/>
<circle cx="19.1893" cy="1.74448" r="1.74448" fill="#497DF1"/>
<circle cx="17.4447" cy="17.4449" r="6.97794" fill="#D6587E"/>
<ellipse cx="13.9558" cy="20.5849" rx="9.07132" ry="8.72243" fill="#E9B3C2"/>
<ellipse cx="13.9558" cy="20.5849" rx="7.67573" ry="7.32684" fill="#404340"/>
<circle cx="13.6072" cy="20.5849" r="4.28566" stroke="white" stroke-width="0.5"/>
<circle cx="13.6071" cy="20.5849" r="2.19228" stroke="white" stroke-width="0.5"/>
<path d="M32.462 18.8657C32.462 17.8951 32.672 17.0317 33.092 16.2757C33.512 15.5104 34.0953 14.9177 34.842 14.4977C35.598 14.0684 36.452 13.8537 37.404 13.8537C38.5707 13.8537 39.5693 14.1617 40.4 14.7777C41.2307 15.3937 41.786 16.2337 42.066 17.2977H39.434C39.238 16.8871 38.958 16.5744 38.594 16.3597C38.2393 16.1451 37.8333 16.0377 37.376 16.0377C36.6387 16.0377 36.0413 16.2944 35.584 16.8077C35.1267 17.3211 34.898 18.0071 34.898 18.8657C34.898 19.7244 35.1267 20.4104 35.584 20.9237C36.0413 21.4371 36.6387 21.6937 37.376 21.6937C37.8333 21.6937 38.2393 21.5864 38.594 21.3717C38.958 21.1571 39.238 20.8444 39.434 20.4337H42.066C41.786 21.4977 41.2307 22.3377 40.4 22.9537C39.5693 23.5604 38.5707 23.8637 37.404 23.8637C36.452 23.8637 35.598 23.6537 34.842 23.2337C34.0953 22.8044 33.512 22.2117 33.092 21.4557C32.672 20.6997 32.462 19.8364 32.462 18.8657ZM47.0881 23.9057C46.3227 23.9057 45.6321 23.7424 45.0161 23.4157C44.4094 23.0891 43.9287 22.6224 43.5741 22.0157C43.2287 21.4091 43.0561 20.6997 43.0561 19.8877C43.0561 19.0851 43.2334 18.3804 43.5881 17.7737C43.9427 17.1577 44.4281 16.6864 45.0441 16.3597C45.6601 16.0331 46.3507 15.8697 47.1161 15.8697C47.8814 15.8697 48.5721 16.0331 49.1881 16.3597C49.8041 16.6864 50.2894 17.1577 50.6441 17.7737C50.9987 18.3804 51.1761 19.0851 51.1761 19.8877C51.1761 20.6904 50.9941 21.3997 50.6301 22.0157C50.2754 22.6224 49.7854 23.0891 49.1601 23.4157C48.5441 23.7424 47.8534 23.9057 47.0881 23.9057ZM47.0881 21.8337C47.5454 21.8337 47.9327 21.6657 48.2501 21.3297C48.5767 20.9937 48.7401 20.5131 48.7401 19.8877C48.7401 19.2624 48.5814 18.7817 48.2641 18.4457C47.9561 18.1097 47.5734 17.9417 47.1161 17.9417C46.6494 17.9417 46.2621 18.1097 45.9541 18.4457C45.6461 18.7724 45.4921 19.2531 45.4921 19.8877C45.4921 20.5131 45.6414 20.9937 45.9401 21.3297C46.2481 21.6657 46.6307 21.8337 47.0881 21.8337ZM54.6861 21.8197H58.0741V23.7937H52.0121V21.8897L55.2601 17.9557H52.0401V15.9817H58.0041V17.8857L54.6861 21.8197ZM67.3714 15.9817L62.4714 27.5037H59.8954L61.6874 23.5277L58.5094 15.9817H61.1834L62.9894 20.8677L64.7814 15.9817H67.3714ZM73.5979 21.9457H76.7339V23.7937H71.2039V13.9657H73.5979V21.9457ZM79.0798 15.1697C78.6598 15.1697 78.3145 15.0484 78.0438 14.8057C77.7825 14.5537 77.6518 14.2457 77.6518 13.8817C77.6518 13.5084 77.7825 13.2004 78.0438 12.9577C78.3145 12.7057 78.6598 12.5797 79.0798 12.5797C79.4905 12.5797 79.8265 12.7057 80.0878 12.9577C80.3585 13.2004 80.4938 13.5084 80.4938 13.8817C80.4938 14.2457 80.3585 14.5537 80.0878 14.8057C79.8265 15.0484 79.4905 15.1697 79.0798 15.1697ZM80.2698 15.9817V23.7937H77.8758V15.9817H80.2698ZM84.3987 17.0877C84.6227 16.7237 84.9447 16.4297 85.3647 16.2057C85.7847 15.9817 86.2654 15.8697 86.8067 15.8697C87.4507 15.8697 88.0341 16.0331 88.5567 16.3597C89.0794 16.6864 89.4901 17.1531 89.7887 17.7597C90.0967 18.3664 90.2507 19.0711 90.2507 19.8737C90.2507 20.6764 90.0967 21.3857 89.7887 22.0017C89.4901 22.6084 89.0794 23.0797 88.5567 23.4157C88.0341 23.7424 87.4507 23.9057 86.8067 23.9057C86.2561 23.9057 85.7754 23.7984 85.3647 23.5837C84.9541 23.3597 84.6321 23.0657 84.3987 22.7017V23.7937H82.0047V13.4337H84.3987V17.0877ZM87.8147 19.8737C87.8147 19.2764 87.6467 18.8097 87.3107 18.4737C86.9841 18.1284 86.5781 17.9557 86.0927 17.9557C85.6167 17.9557 85.2107 18.1284 84.8747 18.4737C84.5481 18.8191 84.3847 19.2904 84.3847 19.8877C84.3847 20.4851 84.5481 20.9564 84.8747 21.3017C85.2107 21.6471 85.6167 21.8197 86.0927 21.8197C86.5687 21.8197 86.9747 21.6471 87.3107 21.3017C87.6467 20.9471 87.8147 20.4711 87.8147 19.8737ZM93.9007 17.2837C94.1807 16.8544 94.5307 16.5184 94.9507 16.2757C95.3707 16.0237 95.8373 15.8977 96.3507 15.8977V18.4317H95.6927C95.0953 18.4317 94.6473 18.5624 94.3487 18.8237C94.05 19.0757 93.9007 19.5237 93.9007 20.1677V23.7937H91.5067V15.9817H93.9007V17.2837ZM97.019 19.8737C97.019 19.0711 97.1683 18.3664 97.467 17.7597C97.775 17.1531 98.1903 16.6864 98.713 16.3597C99.2356 16.0331 99.819 15.8697 100.463 15.8697C101.014 15.8697 101.494 15.9817 101.905 16.2057C102.325 16.4297 102.647 16.7237 102.871 17.0877V15.9817H105.265V23.7937H102.871V22.6877C102.638 23.0517 102.311 23.3457 101.891 23.5697C101.48 23.7937 101 23.9057 100.449 23.9057C99.8143 23.9057 99.2356 23.7424 98.713 23.4157C98.1903 23.0797 97.775 22.6084 97.467 22.0017C97.1683 21.3857 97.019 20.6764 97.019 19.8737ZM102.871 19.8877C102.871 19.2904 102.703 18.8191 102.367 18.4737C102.04 18.1284 101.639 17.9557 101.163 17.9557C100.687 17.9557 100.281 18.1284 99.945 18.4737C99.6183 18.8097 99.455 19.2764 99.455 19.8737C99.455 20.4711 99.6183 20.9471 99.945 21.3017C100.281 21.6471 100.687 21.8197 101.163 21.8197C101.639 21.8197 102.04 21.6471 102.367 21.3017C102.703 20.9564 102.871 20.4851 102.871 19.8877ZM109.391 17.2837C109.671 16.8544 110.021 16.5184 110.441 16.2757C110.861 16.0237 111.328 15.8977 111.841 15.8977V18.4317H111.183C110.586 18.4317 110.138 18.5624 109.839 18.8237C109.54 19.0757 109.391 19.5237 109.391 20.1677V23.7937H106.997V15.9817H109.391V17.2837ZM120.965 15.9817L116.065 27.5037H113.489L115.281 23.5277L112.103 15.9817H114.777L116.583 20.8677L118.375 15.9817H120.965Z" fill="black"/>
</svg>
