<svg width="25" height="20" viewBox="0 0 25 20" fill="none" xmlns="http://www.w3.org/2000/svg">
<path d="M9.11108 1.69873H15.864V14.1863H9.11108V1.69873Z" fill="#FF5F00"/>
<path d="M9.53994 7.94261C9.53994 5.40543 10.6976 3.15497 12.4769 1.69879C11.1692 0.639799 9.51856 0 7.71777 0C3.45146 0 0 3.55206 0 7.94261C0 12.3331 3.45146 15.8852 7.71768 15.8852C9.51846 15.8852 11.1691 15.2454 12.4769 14.1863C10.6976 12.7523 9.53994 10.4798 9.53994 7.94261Z" fill="#EB001B"/>
<path d="M24.9751 7.94261C24.9751 12.3331 21.5237 15.8852 17.2575 15.8852C15.4567 15.8852 13.806 15.2454 12.4983 14.1863C14.2991 12.7303 15.4353 10.4798 15.4353 7.94261C15.4353 5.40543 14.2776 3.15497 12.4983 1.69879C13.8059 0.639799 15.4567 0 17.2575 0C21.5237 0 24.9751 3.57417 24.9751 7.94261Z" fill="#F79E1B"/>
</svg>
