<svg width="24" height="24" viewBox="0 0 24 24" fill="none" xmlns="http://www.w3.org/2000/svg">
<path d="M11.9998 11.5001V20.0001M11.9998 20.0001L14.9998 17.0001M11.9998 20.0001L8.99977 17.0001M7.99977 7.03606C8.74807 7.14307 9.44127 7.49055 9.97477 8.02606M17.4998 14.0001C19.0188 14.0001 19.9998 12.7691 19.9998 11.2501C19.9997 10.6487 19.8025 10.0639 19.4384 9.58527C19.0743 9.10665 18.5633 8.76058 17.9838 8.60006C17.8946 7.47852 17.4298 6.41983 16.6645 5.59516C15.8991 4.77048 14.878 4.22803 13.7663 4.05549C12.6545 3.88295 11.517 4.09042 10.5378 4.64435C9.55849 5.19828 8.79467 6.0663 8.36977 7.10806C7.4752 6.86009 6.51875 6.97763 5.71085 7.43485C4.90294 7.89206 4.30975 8.65149 4.06177 9.54606C3.81379 10.4406 3.93134 11.3971 4.38856 12.205C4.84577 13.0129 5.6052 13.6061 6.49977 13.8541" stroke="black" stroke-width="2" stroke-linecap="round" stroke-linejoin="round"/>
</svg>
