<svg width="25" height="25" viewBox="0 0 25 25" fill="none" xmlns="http://www.w3.org/2000/svg">
<path fill-rule="evenodd" clip-rule="evenodd" d="M6.08322 10.2667C7.94859 14.3276 11.2629 17.5457 15.377 19.2907L15.3895 19.2959L16.1853 19.6501C16.6769 19.8693 17.2289 19.9126 17.7487 19.7728C18.2684 19.633 18.7242 19.3186 19.0395 18.8824L20.3666 17.0459C20.4056 16.9918 20.4223 16.9248 20.4134 16.8587C20.4045 16.7927 20.3706 16.7325 20.3186 16.6907L18.002 14.8209C17.9746 14.7988 17.9431 14.7826 17.9093 14.773C17.8755 14.7634 17.8401 14.7608 17.8053 14.7653C17.7705 14.7698 17.7369 14.7813 17.7066 14.799C17.6763 14.8168 17.6499 14.8406 17.6291 14.8688L16.727 16.0855C16.6207 16.229 16.4684 16.3318 16.2956 16.3767C16.1227 16.4217 15.9397 16.406 15.777 16.3324C12.6947 14.9361 10.2253 12.4667 8.82905 9.38444C8.75541 9.22172 8.73975 9.03869 8.78467 8.86583C8.82959 8.69297 8.93239 8.54072 9.07593 8.43444L10.2916 7.53131C10.3198 7.51044 10.3435 7.48406 10.3613 7.45377C10.3791 7.42349 10.3906 7.38991 10.3951 7.35508C10.3995 7.32024 10.3969 7.28486 10.3874 7.25105C10.3778 7.21725 10.3615 7.18574 10.3395 7.1584L8.47072 4.84173C8.42891 4.78978 8.36876 4.75585 8.30267 4.74694C8.23658 4.73803 8.1696 4.7548 8.11551 4.79381L6.26864 6.12715C5.82947 6.44393 5.51354 6.903 5.37453 7.42635C5.23553 7.9497 5.28203 8.50503 5.50614 8.99798L6.08322 10.2657V10.2667ZM14.7603 20.7261C10.2906 18.8282 6.6901 15.3306 4.66343 10.9178L4.66134 10.9157L4.08426 9.64486C3.71074 8.82343 3.63312 7.89803 3.8646 7.02586C4.09608 6.1537 4.62237 5.38857 5.35405 4.86048L7.20093 3.52715C7.57919 3.25415 8.04771 3.13655 8.51006 3.19856C8.9724 3.26056 9.39339 3.49746 9.68634 3.86048L11.5561 6.17819C11.7104 6.36941 11.8245 6.58985 11.8914 6.82627C11.9584 7.06269 11.9768 7.3102 11.9457 7.55393C11.9146 7.79767 11.8345 8.03259 11.7103 8.24458C11.586 8.45658 11.4202 8.64127 11.2228 8.78756L10.5249 9.30423C11.7049 11.5921 13.5683 13.4555 15.8561 14.6355L16.3738 13.9376C16.5201 13.7403 16.7048 13.5746 16.9167 13.4505C17.1286 13.3264 17.3634 13.2463 17.607 13.2152C17.8506 13.1841 18.098 13.2025 18.3343 13.2693C18.5706 13.3362 18.791 13.4501 18.9822 13.6042L21.2999 15.474C21.6632 15.767 21.9003 16.1882 21.9623 16.6508C22.0243 17.1134 21.9065 17.5821 21.6332 17.9605L20.3061 19.798C19.7808 20.525 19.0213 21.0491 18.1552 21.2822C17.2891 21.5153 16.3692 21.4433 15.5499 21.0782L14.7603 20.7261Z" fill="#DF5EF3"/>
</svg>
