<svg width="32" height="32" viewBox="0 0 32 32" fill="none" xmlns="http://www.w3.org/2000/svg">
<path fill-rule="evenodd" clip-rule="evenodd" d="M24.1319 0.82446C18.7762 -0.27482 13.2222 -0.27482 7.86651 0.82446L7.28943 0.941691C5.78293 1.25096 4.39929 1.93766 3.29223 2.9255C2.18516 3.91333 1.398 5.16363 1.01819 6.53751C-0.339396 11.4495 -0.339396 16.5951 1.01819 21.5071C1.38039 22.8174 2.11345 24.0164 3.14304 24.9827C4.17264 25.9489 5.46216 26.648 6.88088 27.0091L7.67244 31.3482C7.69771 31.486 7.76275 31.6151 7.86078 31.7219C7.9588 31.8288 8.08624 31.9096 8.22982 31.9559C8.37339 32.0022 8.52786 32.0123 8.67713 31.9851C8.8264 31.958 8.96501 31.8946 9.07854 31.8015L13.7275 27.9829C17.2173 28.1785 20.7198 27.9222 24.1319 27.2217L24.7107 27.1045C26.2172 26.7952 27.6008 26.1085 28.7079 25.1207C29.815 24.1328 30.6021 22.8825 30.9819 21.5087C32.3394 16.5966 32.3394 11.4511 30.9819 6.53907C30.602 5.165 29.8146 3.91456 28.7072 2.9267C27.5998 1.93885 26.2158 1.25227 24.709 0.943254L24.1319 0.82446ZM9.30324 6.4109C8.98686 6.36862 8.66426 6.42709 8.38911 6.57659H8.36528C7.72692 6.92046 7.15154 7.35344 6.66128 7.863C6.25273 8.29597 6.03144 8.73363 5.97356 9.15566C5.93951 9.40576 5.96334 9.65897 6.04335 9.89813L6.07399 9.91376C6.53361 11.1533 7.13282 12.3459 7.8648 13.4682C8.80864 15.0445 9.97012 16.5024 11.3205 17.8057L11.3613 17.8589L11.426 17.9026L11.4651 17.9448L11.5128 17.9824C12.9372 19.226 14.5286 20.2976 16.2486 21.171C18.2147 22.1542 19.408 22.6185 20.1247 22.8123V22.8217C20.3341 22.881 20.5247 22.9076 20.7171 22.9076C21.3275 22.8662 21.9051 22.6384 22.3581 22.2605C22.9114 21.8103 23.3795 21.2805 23.7438 20.6912V20.6802C24.0859 20.0863 23.9702 19.5267 23.4765 19.1469C22.4849 18.3513 21.4127 17.6447 20.2745 17.0367C19.5119 16.6569 18.7373 16.8866 18.4241 17.2712L17.7551 18.0464C17.4113 18.431 16.7882 18.3778 16.7882 18.3778L16.7712 18.3872C12.1222 17.2977 10.8813 12.9758 10.8813 12.9758C10.8813 12.9758 10.8234 12.3881 11.2541 12.088L12.0916 11.469C12.4933 11.1689 12.7725 10.4593 12.3418 9.75901C11.6841 8.71294 10.9161 7.72869 10.0488 6.82043C9.8597 6.60667 9.59444 6.46108 9.29983 6.40934L9.30324 6.4109ZM17.1576 4.53208C16.9319 4.53208 16.7154 4.61442 16.5558 4.76099C16.3961 4.90755 16.3065 5.10634 16.3065 5.31362C16.3065 5.5209 16.3961 5.71968 16.5558 5.86625C16.7154 6.01282 16.9319 6.09516 17.1576 6.09516C19.311 6.09516 21.0984 6.74071 22.513 7.97867C23.2399 8.65548 23.8068 9.45734 24.1779 10.3358C24.5507 11.2158 24.7209 12.1552 24.6766 13.0962C24.6719 13.1988 24.6893 13.3013 24.7277 13.3978C24.7662 13.4942 24.8249 13.5828 24.9007 13.6584C25.0536 13.8112 25.2663 13.9018 25.492 13.9105C25.7178 13.9193 25.938 13.8453 26.1044 13.7048C26.2707 13.5644 26.3694 13.3691 26.3789 13.1618C26.4317 12.0043 26.2225 10.8494 25.7644 9.76995C25.3043 8.68539 24.6068 7.69906 23.7148 6.87201L23.6978 6.85638C21.9428 5.31675 19.7213 4.53208 17.1576 4.53208ZM17.0997 7.10178C16.874 7.10178 16.6575 7.18412 16.4979 7.33069C16.3383 7.47725 16.2486 7.67604 16.2486 7.88332C16.2486 8.0906 16.3383 8.28938 16.4979 8.43595C16.6575 8.58252 16.874 8.66486 17.0997 8.66486H17.1287C18.6812 8.76646 19.8115 9.24163 20.603 10.0216C21.415 10.825 21.8355 11.8238 21.8032 13.0587C21.798 13.2659 21.8827 13.4666 22.0386 13.6166C22.1946 13.7665 22.409 13.8534 22.6347 13.8582C22.8605 13.863 23.079 13.7852 23.2423 13.642C23.4056 13.4988 23.5003 13.3019 23.5055 13.0946C23.5463 11.4737 22.9777 10.0748 21.8508 8.95872V8.95559C20.6984 7.8208 19.117 7.22057 17.2138 7.10334L17.1848 7.10022L17.0997 7.10178ZM17.0674 9.71994C16.9535 9.71071 16.8387 9.72265 16.7299 9.75505C16.6212 9.78744 16.5206 9.83963 16.4343 9.9085C16.348 9.97737 16.2777 10.0615 16.2276 10.1559C16.1774 10.2502 16.1485 10.3529 16.1426 10.4578C16.1366 10.5626 16.1538 10.6675 16.1929 10.7662C16.2321 10.8648 16.2925 10.9552 16.3706 11.0319C16.4486 11.1087 16.5427 11.1702 16.6472 11.2128C16.7517 11.2554 16.8645 11.2782 16.9789 11.2799C17.6904 11.3143 18.1449 11.5112 18.4309 11.7754C18.7186 12.0411 18.9331 12.4678 18.9723 13.1353C18.9744 13.2401 18.9995 13.3436 19.0461 13.4393C19.0926 13.5351 19.1597 13.6213 19.2433 13.6928C19.327 13.7643 19.4254 13.8195 19.5328 13.8553C19.6402 13.8911 19.7543 13.9067 19.8684 13.9012C19.9825 13.8956 20.0942 13.869 20.1968 13.823C20.2995 13.7769 20.391 13.7124 20.4659 13.6332C20.5408 13.554 20.5976 13.4617 20.6328 13.362C20.6681 13.2622 20.6811 13.1569 20.6711 13.0524C20.6167 12.1146 20.2966 11.2861 19.6413 10.6765C18.9825 10.0669 18.0854 9.76995 17.0674 9.71994Z" fill="#6F3FAA"/>
</svg>
