<svg width="30" height="30" viewBox="0 0 30 30" fill="none" xmlns="http://www.w3.org/2000/svg">
<g clip-path="url(#clip0_7_194)">
<path d="M15 27.025C14.8159 27.0244 14.6371 26.9629 14.4917 26.85C9.85834 23.25 6.66668 20.15 4.43334 17.0917C1.58334 13.1833 0.933345 9.57501 2.50001 6.36667C3.61668 4.07501 6.82501 2.20001 10.575 3.29167C12.363 3.80812 13.9229 4.91566 15 6.43334C16.0771 4.91566 17.6371 3.80812 19.425 3.29167C23.1667 2.21667 26.3833 4.07501 27.5 6.36667C29.0667 9.57501 28.4167 13.1833 25.5667 17.0917C23.3333 20.15 20.1417 23.25 15.5083 26.85C15.3629 26.9629 15.1841 27.0244 15 27.025ZM8.44168 4.65001C7.54939 4.61528 6.66449 4.82421 5.88197 5.25438C5.09944 5.68455 4.44885 6.31971 4.00001 7.09167C2.70834 9.74168 3.29168 12.6917 5.78334 16.1C8.43132 19.5155 11.532 22.5545 15 25.1333C18.4674 22.5571 21.5681 19.5209 24.2167 16.1083C26.7167 12.6917 27.2917 9.74168 26 7.10001C25.1667 5.43334 22.6667 4.10834 19.8833 4.89167C18.9909 5.15543 18.1635 5.60311 17.4545 6.2059C16.7455 6.8087 16.1706 7.55327 15.7667 8.39167C15.7039 8.54452 15.5971 8.67524 15.4598 8.76725C15.3226 8.85925 15.1611 8.90837 14.9958 8.90837C14.8306 8.90837 14.6691 8.85925 14.5319 8.76725C14.3946 8.67524 14.2878 8.54452 14.225 8.39167C13.8242 7.55117 13.2502 6.80487 12.5408 6.20169C11.8313 5.59852 11.0024 5.15209 10.1083 4.89167C9.56666 4.73434 9.00574 4.65301 8.44168 4.65001Z" fill="black"/>
</g>
<defs>
<clipPath id="clip0_7_194">
<rect width="30" height="30" fill="white"/>
</clipPath>
</defs>
</svg>
