<svg width="24" height="26" viewBox="0 0 24 26" fill="none" xmlns="http://www.w3.org/2000/svg">
<path d="M11.8196 22.9517C11.6747 22.9512 11.534 22.9003 11.4196 22.8069C7.77368 19.8276 5.26221 17.2621 3.50483 14.731C1.26221 11.4965 0.750731 8.51034 1.98352 5.85517C2.86221 3.95862 5.3868 2.40689 8.33762 3.31034C9.74453 3.73775 10.972 4.65433 11.8196 5.91034C12.6671 4.65433 13.8946 3.73775 15.3015 3.31034C18.2458 2.42069 20.777 3.95862 21.6556 5.85517C22.8884 8.51034 22.377 11.4965 20.1343 14.731C18.377 17.2621 15.8655 19.8276 12.2196 22.8069C12.1051 22.9003 11.9645 22.9512 11.8196 22.9517ZM6.65893 4.43448C5.9568 4.40574 5.26048 4.57865 4.64473 4.93465C4.02897 5.29065 3.51703 5.8163 3.16385 6.45517C2.14745 8.64827 2.60647 11.0897 4.56712 13.9103C6.65078 16.7369 9.09067 19.252 11.8196 21.3862C14.5481 19.2541 16.9879 16.7414 19.072 13.9172C21.0393 11.0897 21.4917 8.64827 20.4753 6.46207C19.8196 5.08276 17.8524 3.9862 15.6622 4.63448C14.9599 4.85276 14.3089 5.22325 13.751 5.72212C13.1931 6.22099 12.7407 6.83717 12.4229 7.53103C12.3735 7.65752 12.2894 7.76571 12.1814 7.84185C12.0734 7.91799 11.9463 7.95864 11.8163 7.95864C11.6863 7.95864 11.5592 7.91799 11.4512 7.84185C11.3432 7.76571 11.2592 7.65752 11.2097 7.53103C10.8943 6.83544 10.4427 6.21781 9.88443 5.71863C9.32618 5.21945 8.67391 4.85 7.9704 4.63448C7.54416 4.50427 7.10278 4.43696 6.65893 4.43448Z" fill="black"/>
</svg>
