<svg width="93" height="17" viewBox="0 0 93 17" fill="none" xmlns="http://www.w3.org/2000/svg">
<path d="M8.50033 12.233L12.8778 14.8751L11.7162 9.8955L15.5837 6.54508L10.4907 6.10591L8.50033 1.41675L6.50991 6.10591L1.41699 6.54508L5.27741 9.8955L4.12283 14.8751L8.50033 12.233Z" fill="#FBBC04"/>
<path d="M27.5003 12.233L31.8778 14.8751L30.7162 9.8955L34.5837 6.54508L29.4907 6.10591L27.5003 1.41675L25.5099 6.10591L20.417 6.54508L24.2774 9.8955L23.1228 14.8751L27.5003 12.233Z" fill="#FBBC04"/>
<path d="M46.5003 12.233L50.8778 14.8751L49.7162 9.8955L53.5837 6.54508L48.4907 6.10591L46.5003 1.41675L44.5099 6.10591L39.417 6.54508L43.2774 9.8955L42.1228 14.8751L46.5003 12.233Z" fill="#FBBC04"/>
<path d="M65.5003 12.233L69.8778 14.8751L68.7162 9.8955L72.5837 6.54508L67.4907 6.10591L65.5003 1.41675L63.5099 6.10591L58.417 6.54508L62.2774 9.8955L61.1228 14.8751L65.5003 12.233Z" fill="#FBBC04"/>
<path d="M84.5003 12.233L88.8778 14.8751L87.7162 9.8955L91.5837 6.54508L86.4907 6.10591L84.5003 1.41675L82.5099 6.10591L77.417 6.54508L81.2774 9.8955L80.1228 14.8751L84.5003 12.233Z" fill="#FBBC04"/>
</svg>
