<svg width="29" height="30" viewBox="0 0 29 30" fill="none" xmlns="http://www.w3.org/2000/svg">
<g clip-path="url(#clip0_7_197)">
<path d="M1.35913 11.6875H27.6409V9.75416H1.35913V11.6875ZM27.0667 11.1133V11.962H29V11.1133H27.0667ZM23.9463 27.1542H5.05373V29.0875H23.9463V27.1542ZM1.93333 11.962V11.1133H0V11.962H1.93333ZM5.59893 27.4906C3.18826 22.6691 1.93327 17.3526 1.93333 11.962H0C0 17.6538 1.32433 23.2662 3.87053 28.3567L5.59893 27.4906ZM5.05373 27.1542C5.28573 27.1542 5.49647 27.2856 5.59893 27.4906L3.87053 28.3567C3.9806 28.5762 4.14954 28.7608 4.35849 28.8899C4.56743 29.019 4.80815 29.0874 5.05373 29.0875V27.1542ZM23.4011 27.4906C23.4517 27.3894 23.5296 27.3043 23.6259 27.2449C23.7222 27.1855 23.8331 27.154 23.9463 27.1542V29.0875C24.4489 29.0875 24.9052 28.8052 25.1295 28.3567L23.4011 27.4906ZM27.0667 11.962C27.0667 17.3522 25.81 22.6688 23.4011 27.4906L25.1295 28.3567C27.6749 23.2664 29 17.6533 29 11.962H27.0667ZM27.6409 11.6875C27.4886 11.6875 27.3425 11.627 27.2348 11.5193C27.1272 11.4116 27.0667 11.2656 27.0667 11.1133H29C29 10.7528 28.8568 10.4071 28.6019 10.1522C28.347 9.89736 28.0013 9.75416 27.6409 9.75416V11.6875ZM1.35913 9.75416C0.998669 9.75416 0.652968 9.89736 0.398081 10.1522C0.143194 10.4071 0 10.7528 0 11.1133H1.93333C1.93333 11.2656 1.87284 11.4116 1.76515 11.5193C1.65747 11.627 1.51142 11.6875 1.35913 11.6875V9.75416ZM7.59607 11.2177L13.3961 1.55103L11.7353 0.557297L5.93533 10.224L7.59607 11.2177ZM15.6039 1.55103L21.4039 11.2177L23.0627 10.224L17.2627 0.557297L15.6039 1.55103Z" fill="black"/>
</g>
<defs>
<clipPath id="clip0_7_197">
<rect width="29" height="29" fill="white" transform="translate(0 0.0874939)"/>
</clipPath>
</defs>
</svg>
