<svg width="24" height="24" viewBox="0 0 24 24" fill="none" xmlns="http://www.w3.org/2000/svg">
<path d="M22.2076 2.45538C22.0914 2.35504 21.95 2.28831 21.7987 2.26237C21.6474 2.23643 21.4919 2.25228 21.3489 2.3082L2.34949 9.74351C2.08023 9.84821 1.85226 10.0376 1.69992 10.283C1.54758 10.5285 1.4791 10.8168 1.5048 11.1046C1.5305 11.3923 1.64898 11.664 1.84241 11.8786C2.03584 12.0932 2.29375 12.2391 2.5773 12.2944L7.50011 13.261V18.7501C7.49915 19.0491 7.588 19.3414 7.75515 19.5893C7.92231 19.8372 8.16007 20.0292 8.43761 20.1404C8.71473 20.2535 9.01949 20.2807 9.31225 20.2183C9.60501 20.156 9.87224 20.007 10.0792 19.7907L12.4529 17.3288L16.2189 20.6251C16.4906 20.8661 16.841 20.9994 17.2042 21.0001C17.3633 20.9999 17.5215 20.975 17.6729 20.926C17.9204 20.8475 18.1429 20.7055 18.3184 20.5142C18.494 20.3229 18.6163 20.089 18.6732 19.8357L22.4786 3.28132C22.5126 3.13202 22.5054 2.97628 22.4576 2.83078C22.4099 2.68528 22.3235 2.55551 22.2076 2.45538ZM16.4757 5.83038L8.07668 11.8454L3.42668 10.9332L16.4757 5.83038ZM9.00011 18.7501V14.2988L11.3242 16.3369L9.00011 18.7501ZM17.2061 19.5001L9.4548 12.7032L20.6111 4.70726L17.2061 19.5001Z" fill="black"/>
</svg>
