<svg width="32" height="32" viewBox="0 0 32 32" fill="none" xmlns="http://www.w3.org/2000/svg">
<path d="M16 0C7.164 0 0 7.164 0 16C0 24.836 7.164 32 16 32C24.836 32 32 24.836 32 16C32 7.164 24.836 0 16 0ZM23.8587 10.9613L21.232 23.3347C21.0387 24.212 20.516 24.4253 19.7867 24.012L15.7867 21.0653L13.8587 22.924C13.7642 23.0463 13.643 23.1453 13.5043 23.2135C13.3656 23.2817 13.2132 23.3172 13.0587 23.3173H13.052L13.336 19.2453L20.7493 12.5493C21.0693 12.2653 20.6773 12.104 20.252 12.388L11.0933 18.156L7.14667 16.924C6.29333 16.6533 6.26933 16.0707 7.32667 15.652L22.748 9.708C23.4653 9.44667 24.0893 9.87867 23.8573 10.9627L23.8587 10.9613Z" fill="#039BE5"/>
</svg>
