<svg width="26" height="26" viewBox="0 0 26 26" fill="none" xmlns="http://www.w3.org/2000/svg">
<path d="M22.8137 21.4159C21.2804 18.7664 18.8732 16.9072 16.0763 16.1187C17.4361 15.4275 18.5235 14.2984 19.1631 12.9136C19.8028 11.5287 19.9573 9.96875 19.6019 8.48529C19.2465 7.00182 18.4019 5.68128 17.2041 4.73661C16.0064 3.79193 14.5254 3.27817 13 3.27817C11.4745 3.27817 9.99353 3.79193 8.7958 4.73661C7.59807 5.68128 6.7534 7.00182 6.398 8.48529C6.0426 9.96875 6.19717 11.5287 6.8368 12.9136C7.47643 14.2984 8.56384 15.4275 9.92368 16.1187C7.12669 16.9062 4.71958 18.7654 3.18628 21.4159C3.14418 21.4822 3.11591 21.5562 3.10317 21.6337C3.09044 21.7111 3.0935 21.7903 3.11217 21.8666C3.13084 21.9428 3.16474 22.0144 3.21182 22.0772C3.2589 22.14 3.3182 22.1926 3.38615 22.2319C3.45409 22.2712 3.52928 22.2963 3.60719 22.3058C3.6851 22.3152 3.76411 22.3088 3.83948 22.287C3.91486 22.2651 3.98503 22.2282 4.04577 22.1785C4.10652 22.1288 4.15659 22.0674 4.19296 21.9978C6.056 18.779 9.3476 16.8578 13 16.8578C16.6523 16.8578 19.9439 18.779 21.807 21.9978C21.8434 22.0674 21.8934 22.1288 21.9542 22.1785C22.0149 22.2282 22.0851 22.2651 22.1605 22.287C22.2358 22.3088 22.3148 22.3152 22.3928 22.3058C22.4707 22.2963 22.5458 22.2712 22.6138 22.2319C22.6817 22.1926 22.741 22.14 22.7881 22.0772C22.8352 22.0144 22.8691 21.9428 22.8878 21.8666C22.9064 21.7903 22.9095 21.7111 22.8968 21.6337C22.884 21.5562 22.8558 21.4822 22.8137 21.4159ZM7.37497 10.069C7.37497 8.95644 7.70487 7.86891 8.32295 6.94388C8.94104 6.01886 9.81954 5.29788 10.8474 4.87214C11.8752 4.4464 13.0062 4.335 14.0974 4.55205C15.1885 4.76909 16.1908 5.30482 16.9774 6.09149C17.7641 6.87816 18.2998 7.88044 18.5169 8.97158C18.7339 10.0627 18.6225 11.1937 18.1968 12.2216C17.771 13.2494 17.0501 14.1279 16.1251 14.746C15.2 15.3641 14.1125 15.694 13 15.694C11.5087 15.6922 10.079 15.099 9.02448 14.0445C7.96998 12.99 7.37677 11.5603 7.37497 10.069Z" fill="black"/>
</svg>
