<svg width="30" height="30" viewBox="0 0 30 30" fill="none" xmlns="http://www.w3.org/2000/svg">
<path d="M26.8583 24.9609C25.0055 21.7594 22.0969 19.5129 18.7172 18.5602C20.3604 17.7249 21.6743 16.3606 22.4472 14.6872C23.2201 13.0138 23.4069 11.1289 22.9774 9.33639C22.548 7.54386 21.5274 5.94822 20.0801 4.80673C18.6328 3.66524 16.8433 3.04445 15.0001 3.04445C13.1568 3.04445 11.3673 3.66524 9.92002 4.80673C8.47276 5.94822 7.45212 7.54386 7.02267 9.33639C6.59323 11.1289 6.78001 13.0138 7.55289 14.6872C8.32578 16.3606 9.63973 17.7249 11.2829 18.5602C7.90318 19.5117 4.99459 21.7582 3.14185 24.9609C3.09098 25.041 3.05682 25.1305 3.04143 25.224C3.02604 25.3176 3.02973 25.4133 3.05229 25.5054C3.07485 25.5975 3.11581 25.6841 3.17271 25.76C3.2296 25.8359 3.30125 25.8994 3.38335 25.9469C3.46546 25.9943 3.55631 26.0247 3.65044 26.0361C3.74458 26.0476 3.84006 26.0398 3.93113 26.0134C4.02221 25.987 4.107 25.9424 4.1804 25.8824C4.2538 25.8224 4.3143 25.7481 4.35826 25.6641C6.60943 21.7746 10.5868 19.4531 15.0001 19.4531C19.4133 19.4531 23.3907 21.7746 25.6419 25.6641C25.6858 25.7481 25.7463 25.8224 25.8197 25.8824C25.8931 25.9424 25.9779 25.987 26.069 26.0134C26.16 26.0398 26.2555 26.0476 26.3497 26.0361C26.4438 26.0247 26.5347 25.9943 26.6168 25.9469C26.6989 25.8994 26.7705 25.8359 26.8274 25.76C26.8843 25.6841 26.9253 25.5975 26.9478 25.5054C26.9704 25.4133 26.9741 25.3176 26.9587 25.224C26.9433 25.1305 26.9091 25.041 26.8583 24.9609ZM8.20318 11.25C8.20318 9.9057 8.60181 8.59159 9.34866 7.47385C10.0955 6.35611 11.157 5.48494 12.399 4.9705C13.641 4.45606 15.0076 4.32146 16.3261 4.58372C17.6445 4.84598 18.8556 5.49332 19.8062 6.44388C20.7567 7.39444 21.4041 8.60553 21.6663 9.92399C21.9286 11.2425 21.794 12.6091 21.2795 13.851C20.7651 15.093 19.8939 16.1545 18.7762 16.9014C17.6585 17.6482 16.3443 18.0469 15.0001 18.0469C13.1981 18.0447 11.4705 17.3279 10.1963 16.0537C8.92215 14.7795 8.20535 13.052 8.20318 11.25Z" fill="black"/>
</svg>
