<svg width="32" height="32" viewBox="0 0 32 32" fill="none" xmlns="http://www.w3.org/2000/svg">
<path d="M15.9988 0.00230768C12.2704 0.00179191 8.6589 1.30324 5.78835 3.68178C2.9178 6.06032 0.968525 9.36653 0.277322 13.0292C-0.413882 16.6918 0.196412 20.4807 2.00275 23.7413C3.8091 27.0019 6.69801 29.5293 10.1703 30.8868C10.0341 29.6246 9.90257 27.677 10.228 26.2994C10.5166 25.051 12.1047 18.3521 12.1047 18.3521C12.1047 18.3521 11.6292 17.3922 11.6292 15.9799C11.6292 13.7577 12.9195 12.094 14.5215 12.094C15.8857 12.094 16.5482 13.1185 16.5482 14.3439C16.5482 15.7146 15.6756 17.7683 15.2209 19.6651C14.8377 21.2597 16.015 22.5565 17.5869 22.5565C20.4285 22.5565 22.6144 19.5567 22.6144 15.23C22.6144 11.4017 19.8583 8.72493 15.9342 8.72493C11.3822 8.72493 8.71379 12.1355 8.71379 15.6684C8.71379 17.046 9.24009 18.516 9.90488 19.3167C10.0341 19.4759 10.0572 19.6121 10.0134 19.7782C9.86666 20.3842 9.71739 20.9895 9.56556 21.5943C9.494 21.8896 9.33473 21.9473 9.03234 21.8112C7.03335 20.8812 5.78686 17.9598 5.78686 15.6176C5.78686 10.5687 9.45014 5.93969 16.3543 5.93969C21.9012 5.93969 26.2154 9.89025 26.2154 15.1769C26.2154 20.6874 22.7391 25.1295 17.9124 25.1295C16.2897 25.1295 14.7685 24.2849 14.2468 23.2903C14.2468 23.2903 13.4458 26.3409 13.2519 27.0909C12.8918 28.4824 11.9177 30.22 11.2622 31.2814C13.6567 32.0243 16.1924 32.1941 18.6646 31.7772C21.1369 31.3602 23.4764 30.3681 25.4946 28.881C27.5128 27.3939 29.1531 25.4534 30.2831 23.216C31.4131 20.9787 32.0012 18.5071 32 16.0007C32.0009 13.8998 31.5878 11.8193 30.7841 9.87802C29.9805 7.93677 28.8022 6.17281 27.3165 4.68692C25.8308 3.20102 24.0668 2.02231 22.1252 1.21812C20.1837 0.41392 18.1027 -1.96802e-07 16.0011 0L15.9988 0.00230768Z" fill="#E60023"/>
</svg>
