<svg width="39" height="13" viewBox="0 0 39 13" fill="none" xmlns="http://www.w3.org/2000/svg">
<g clip-path="url(#clip0_11_29)">
<path d="M20.1699 4.13932C20.1476 5.94303 21.7334 6.94952 22.9279 7.54799C24.1552 8.16196 24.5674 8.55572 24.5625 9.10485C24.5534 9.94515 23.5836 10.316 22.6761 10.3305C21.0928 10.3557 20.1721 9.89096 19.4403 9.53949L18.8699 12.2834C19.6042 12.6313 20.9639 12.9347 22.3738 12.948C25.6835 12.948 27.8487 11.2683 27.8605 8.66411C27.8734 5.35897 23.4139 5.17603 23.4443 3.69873C23.4548 3.25078 23.8706 2.77276 24.7816 2.65122C25.2325 2.58982 26.4773 2.54283 27.8887 3.211L28.4426 0.556179C27.6836 0.272058 26.7081 -1.90735e-06 25.4937 -1.90735e-06C22.3785 -1.90735e-06 20.1875 1.70253 20.1699 4.13932ZM33.7652 0.228673C33.1608 0.228673 32.6515 0.591106 32.4242 1.14729L27.6966 12.753H31.0038L31.6619 10.883H35.7033L36.0851 12.753H39L36.4563 0.228673H33.7652ZM34.2278 3.61196L35.1823 8.31499H32.5684L34.2278 3.61196ZM16.16 0.228829L13.5531 12.7528H16.7046L19.3103 0.228516H16.16M11.4978 0.228516L8.21757 8.75323L6.89066 1.50502C6.73496 0.695889 6.12011 0.228673 5.4373 0.228673H0.0751055L0 0.59236C1.10084 0.83795 2.35158 1.23406 3.10934 1.65789C3.57307 1.91679 3.7053 2.14312 3.85765 2.75835L6.37086 12.753H9.70125L14.8072 0.228673L11.4978 0.228516Z" fill="url(#paint0_linear_11_29)"/>
</g>
<defs>
<linearGradient id="paint0_linear_11_29" x1="1792.99" y1="38.9217" x2="1831.52" y2="-1290.8" gradientUnits="userSpaceOnUse">
<stop stop-color="#222357"/>
<stop offset="1" stop-color="#254AA5"/>
</linearGradient>
<clipPath id="clip0_11_29">
<rect width="39" height="13" fill="white"/>
</clipPath>
</defs>
</svg>
