<svg width="25" height="24" viewBox="0 0 25 24" fill="none" xmlns="http://www.w3.org/2000/svg">
<path d="M19.5288 20H5.52881C4.99838 20 4.48967 19.7893 4.11459 19.4142C3.73952 19.0391 3.52881 18.5304 3.52881 18V9C3.52881 8.46957 3.73952 7.96086 4.11459 7.58579C4.48967 7.21071 4.99838 7 5.52881 7H19.5288C20.0592 7 20.5679 7.21071 20.943 7.58579C21.3181 7.96086 21.5288 8.46957 21.5288 9V18C21.5288 18.5304 21.3181 19.0391 20.943 19.4142C20.5679 19.7893 20.0592 20 19.5288 20Z" stroke="black" stroke-width="1.5"/>
<path d="M17.0288 14C16.8962 14 16.769 13.9473 16.6753 13.8536C16.5815 13.7598 16.5288 13.6326 16.5288 13.5C16.5288 13.3674 16.5815 13.2402 16.6753 13.1464C16.769 13.0527 16.8962 13 17.0288 13C17.1614 13 17.2886 13.0527 17.3824 13.1464C17.4761 13.2402 17.5288 13.3674 17.5288 13.5C17.5288 13.6326 17.4761 13.7598 17.3824 13.8536C17.2886 13.9473 17.1614 14 17.0288 14Z" fill="black" stroke="black" stroke-width="1.5" stroke-linecap="round" stroke-linejoin="round"/>
<path d="M18.5288 6.99996V5.60296C18.5287 5.29646 18.4582 4.99408 18.3227 4.71918C18.1871 4.44427 17.9903 4.20419 17.7472 4.01747C17.5041 3.83075 17.2214 3.7024 16.9209 3.64232C16.6203 3.58224 16.31 3.59204 16.0138 3.67096L5.01381 6.60396C4.58786 6.71747 4.21135 6.96852 3.9428 7.31809C3.67425 7.66765 3.52871 8.09615 3.52881 8.53696V8.99996" stroke="black" stroke-width="1.5"/>
</svg>
