<svg width="32" height="32" viewBox="0 0 32 32" fill="none" xmlns="http://www.w3.org/2000/svg">
<path d="M27.3349 4.65007C25.8589 3.17065 24.1023 1.99777 22.167 1.19952C20.2317 0.401268 18.1563 -0.00643712 16.0613 7.68399e-05C7.27993 7.68399e-05 0.132655 7.11206 0.132655 15.856C0.132655 18.65 0.868286 21.382 2.26116 23.782L0 32L8.4477 29.794C10.7831 31.0599 13.3998 31.724 16.0593 31.726H16.0653C24.8466 31.726 31.9999 24.614 31.9999 15.87C32.0053 13.7861 31.5956 11.7218 30.7945 9.79635C29.9935 7.87089 28.817 6.12246 27.3329 4.65207L27.3349 4.65007ZM16.0653 29.05C13.6919 29.0504 11.3621 28.4156 9.32 27.212L8.83561 26.924L3.82287 28.23L5.16148 23.368L4.84793 22.868C3.51687 20.7696 2.81347 18.3375 2.81992 15.856C2.82418 12.3602 4.22207 9.00889 6.70682 6.53754C9.19157 4.06619 12.5602 2.67672 16.0733 2.67407C19.6088 2.67407 22.9392 4.05007 25.4376 6.53606C26.6705 7.75843 27.6477 9.21179 28.3128 10.8122C28.978 12.4125 29.3178 14.1282 29.3127 15.86C29.3067 23.134 23.3653 29.05 16.0653 29.05ZM23.3271 19.176C22.9312 18.976 20.9715 18.02 20.6077 17.888C20.2439 17.756 19.9786 17.688 19.7093 18.088C19.446 18.482 18.6802 19.376 18.4471 19.644C18.2139 19.906 17.9828 19.944 17.5868 19.744C17.1909 19.544 15.9025 19.126 14.383 17.776C13.2012 16.726 12.3992 15.426 12.1661 15.032C11.9329 14.638 12.1399 14.42 12.3429 14.226C12.5258 14.05 12.7389 13.764 12.9399 13.532C13.1409 13.3 13.2032 13.138 13.3358 12.87C13.4685 12.608 13.4042 12.376 13.3037 12.176C13.2032 11.976 12.4052 10.0261 12.0796 9.23206C11.76 8.45606 11.4264 8.56406 11.1812 8.55006C10.948 8.53806 10.6847 8.53806 10.4214 8.53806C10.1581 8.53806 9.724 8.63806 9.3602 9.03206C8.99641 9.42605 7.96532 10.3881 7.96532 12.338C7.96532 14.288 9.39035 16.17 9.59134 16.438C9.79233 16.7 12.3992 20.706 16.3929 22.42C17.3416 22.826 18.0833 23.07 18.6601 23.258C19.6148 23.558 20.4811 23.514 21.1665 23.414C21.9323 23.302 23.5221 22.458 23.8557 21.532C24.1894 20.606 24.1894 19.814 24.0889 19.65C23.9944 19.474 23.7311 19.376 23.3291 19.174L23.3271 19.176Z" fill="#43D854"/>
</svg>
